<svg width="242" height="40" viewBox="0 0 242 40" fill="none" xmlns="http://www.w3.org/2000/svg">
<g clip-path="url(#clip0_4001_147)">
<path d="M39.9249 9.99L36.5915 0.823333C36.4115 0.328333 35.9432 0 35.4165 0H4.58319C4.05652 0 3.58819 0.328333 3.40819 0.823333L0.074857 9.99C-0.0634763 10.3733 -0.0084763 10.8 0.226524 11.135C0.459857 11.4683 0.841524 11.6667 1.24986 11.6667H3.33319V38.3333C3.33319 39.2533 4.07986 40 4.99986 40H8.33319V20H31.6665V40H34.9999C35.9199 40 36.6665 39.2533 36.6665 38.3333V11.6667H38.7499C39.1582 11.6667 39.5399 11.4683 39.7732 11.1333C40.0082 10.8 40.0632 10.3733 39.9249 9.99Z" fill="#E94C04"/>
<path d="M10.8335 35.8333H29.1668V40H10.8335V35.8333Z" fill="#E94C04"/>
<path d="M10.8335 29.1667H29.1668V33.3333H10.8335V29.1667Z" fill="#E94C04"/>
<path d="M10.8335 22.5H29.1668V26.6667H10.8335V22.5Z" fill="#E94C04"/>
</g>
<path d="M67.2074 15.8438C67.1278 15.0994 66.7926 14.5199 66.2017 14.1051C65.6165 13.6903 64.8551 13.483 63.9176 13.483C63.2585 13.483 62.6932 13.5824 62.2216 13.7812C61.75 13.9801 61.3892 14.25 61.1392 14.5909C60.8892 14.9318 60.7614 15.321 60.7557 15.7585C60.7557 16.1222 60.8381 16.4375 61.0028 16.7045C61.1733 16.9716 61.4034 17.1989 61.6932 17.3864C61.983 17.5682 62.304 17.7216 62.6562 17.8466C63.0085 17.9716 63.3636 18.0767 63.7216 18.1619L65.358 18.571C66.017 18.7244 66.6506 18.9318 67.2585 19.1932C67.8722 19.4545 68.4205 19.7841 68.9034 20.1818C69.392 20.5795 69.7784 21.0597 70.0625 21.6222C70.3466 22.1847 70.4886 22.8437 70.4886 23.5994C70.4886 24.6222 70.2273 25.5227 69.7045 26.3011C69.1818 27.0739 68.4261 27.679 67.4375 28.1165C66.4545 28.5483 65.2642 28.7642 63.8665 28.7642C62.5085 28.7642 61.3295 28.554 60.3295 28.1335C59.3352 27.7131 58.5568 27.0994 57.9943 26.2926C57.4375 25.4858 57.1364 24.5028 57.0909 23.3438H60.2017C60.2472 23.9517 60.4347 24.4574 60.7642 24.8608C61.0938 25.2642 61.5227 25.5653 62.0511 25.7642C62.5852 25.9631 63.1818 26.0625 63.8409 26.0625C64.5284 26.0625 65.1307 25.9602 65.6477 25.7557C66.1705 25.5455 66.5795 25.2557 66.875 24.8864C67.1705 24.5114 67.321 24.0739 67.3267 23.5739C67.321 23.1193 67.1875 22.7443 66.9261 22.4489C66.6648 22.1477 66.2983 21.8977 65.8267 21.6989C65.3608 21.4943 64.8153 21.3125 64.1903 21.1534L62.2045 20.642C60.767 20.2727 59.6307 19.7131 58.7955 18.9631C57.9659 18.2074 57.5511 17.2045 57.5511 15.9545C57.5511 14.9261 57.8295 14.0256 58.3864 13.2528C58.9489 12.4801 59.7131 11.8807 60.679 11.4545C61.6449 11.0227 62.7386 10.8068 63.9602 10.8068C65.1989 10.8068 66.2841 11.0227 67.2159 11.4545C68.1534 11.8807 68.8892 12.4744 69.4233 13.2358C69.9574 13.9915 70.233 14.8608 70.25 15.8438H67.2074ZM76.2564 20.8295V28.5H73.1712V11.0455H76.1882V17.6335H76.3416C76.6484 16.8949 77.1229 16.3125 77.7649 15.8864C78.4126 15.4545 79.2365 15.2386 80.2365 15.2386C81.1456 15.2386 81.9382 15.429 82.6143 15.8097C83.2905 16.1903 83.8132 16.7472 84.1825 17.4801C84.5575 18.2131 84.745 19.108 84.745 20.1648V28.5H81.6598V20.642C81.6598 19.7614 81.4325 19.0767 80.978 18.5881C80.5291 18.0937 79.8984 17.8466 79.0859 17.8466C78.5405 17.8466 78.0518 17.9659 77.62 18.2045C77.1939 18.4375 76.8587 18.7756 76.6143 19.2188C76.3757 19.6619 76.2564 20.1989 76.2564 20.8295ZM93.6854 28.7557C92.3729 28.7557 91.2393 28.483 90.2848 27.9375C89.3359 27.3864 88.6058 26.608 88.0945 25.6023C87.5831 24.5909 87.3274 23.4006 87.3274 22.0312C87.3274 20.6847 87.5831 19.5028 88.0945 18.4858C88.6115 17.4631 89.3331 16.6676 90.2592 16.0994C91.1854 15.5256 92.2734 15.2386 93.5234 15.2386C94.3303 15.2386 95.0916 15.3693 95.8075 15.6307C96.5291 15.8864 97.1655 16.2841 97.7166 16.8239C98.2734 17.3636 98.7109 18.0511 99.0291 18.8864C99.3473 19.7159 99.5064 20.7045 99.5064 21.8523V22.7983H88.7763V20.7188H96.549C96.5433 20.1278 96.4155 19.6023 96.1655 19.142C95.9155 18.6761 95.5661 18.3097 95.1172 18.0426C94.674 17.7756 94.157 17.642 93.5661 17.642C92.9354 17.642 92.3814 17.7955 91.9041 18.1023C91.4268 18.4034 91.0547 18.8011 90.7876 19.2955C90.5263 19.7841 90.3928 20.321 90.3871 20.9062V22.7216C90.3871 23.483 90.5263 24.1364 90.8047 24.6818C91.0831 25.2216 91.4723 25.6364 91.9723 25.9261C92.4723 26.2102 93.0575 26.3523 93.728 26.3523C94.1768 26.3523 94.5831 26.2898 94.9467 26.1648C95.3104 26.0341 95.6257 25.8438 95.8928 25.5938C96.1598 25.3438 96.3615 25.0341 96.4979 24.6648L99.3786 24.9886C99.1967 25.75 98.8501 26.4148 98.3388 26.983C97.8331 27.5455 97.1854 27.983 96.3956 28.2955C95.6058 28.6023 94.7024 28.7557 93.6854 28.7557ZM105.202 11.0455V28.5H102.116V11.0455H105.202ZM114.911 15.4091V17.7955H107.386V15.4091H114.911ZM109.244 12.2727H112.329V24.5625C112.329 24.9773 112.391 25.2955 112.516 25.517C112.647 25.733 112.817 25.8807 113.028 25.9602C113.238 26.0398 113.471 26.0795 113.727 26.0795C113.92 26.0795 114.096 26.0653 114.255 26.0369C114.42 26.0085 114.545 25.983 114.63 25.9602L115.15 28.3722C114.985 28.429 114.749 28.4915 114.442 28.5597C114.141 28.6278 113.772 28.6676 113.335 28.679C112.562 28.7017 111.866 28.5852 111.246 28.3295C110.627 28.0682 110.136 27.6648 109.772 27.1193C109.414 26.5739 109.238 25.892 109.244 25.0739V12.2727ZM123.146 28.7557C121.834 28.7557 120.7 28.483 119.746 27.9375C118.797 27.3864 118.067 26.608 117.555 25.6023C117.044 24.5909 116.788 23.4006 116.788 22.0312C116.788 20.6847 117.044 19.5028 117.555 18.4858C118.072 17.4631 118.794 16.6676 119.72 16.0994C120.646 15.5256 121.734 15.2386 122.984 15.2386C123.791 15.2386 124.553 15.3693 125.268 15.6307C125.99 15.8864 126.626 16.2841 127.178 16.8239C127.734 17.3636 128.172 18.0511 128.49 18.8864C128.808 19.7159 128.967 20.7045 128.967 21.8523V22.7983H118.237V20.7188H126.01C126.004 20.1278 125.876 19.6023 125.626 19.142C125.376 18.6761 125.027 18.3097 124.578 18.0426C124.135 17.7756 123.618 17.642 123.027 17.642C122.396 17.642 121.842 17.7955 121.365 18.1023C120.888 18.4034 120.516 18.8011 120.249 19.2955C119.987 19.7841 119.854 20.321 119.848 20.9062V22.7216C119.848 23.483 119.987 24.1364 120.266 24.6818C120.544 25.2216 120.933 25.6364 121.433 25.9261C121.933 26.2102 122.518 26.3523 123.189 26.3523C123.638 26.3523 124.044 26.2898 124.408 26.1648C124.771 26.0341 125.087 25.8438 125.354 25.5938C125.621 25.3438 125.822 25.0341 125.959 24.6648L128.839 24.9886C128.658 25.75 128.311 26.4148 127.8 26.983C127.294 27.5455 126.646 27.983 125.857 28.2955C125.067 28.6023 124.163 28.7557 123.146 28.7557ZM131.577 28.5V15.4091H134.569V17.5909H134.705C134.944 16.8352 135.353 16.2528 135.933 15.8438C136.518 15.429 137.185 15.2216 137.935 15.2216C138.106 15.2216 138.296 15.2301 138.506 15.2472C138.722 15.2585 138.901 15.2784 139.043 15.3068V18.1449C138.913 18.0994 138.705 18.0597 138.421 18.0256C138.143 17.9858 137.873 17.9659 137.612 17.9659C137.049 17.9659 136.543 18.0881 136.094 18.3324C135.651 18.571 135.302 18.9034 135.046 19.3295C134.79 19.7557 134.663 20.2472 134.663 20.804V28.5H131.577ZM162.123 16.9347H158.935C158.844 16.4119 158.677 15.9489 158.433 15.5455C158.188 15.1364 157.884 14.7898 157.521 14.5057C157.157 14.2216 156.742 14.0085 156.276 13.8665C155.816 13.7188 155.319 13.6449 154.785 13.6449C153.836 13.6449 152.995 13.8835 152.262 14.3608C151.529 14.8324 150.955 15.5256 150.54 16.4403C150.126 17.3494 149.918 18.4602 149.918 19.7727C149.918 21.108 150.126 22.233 150.54 23.1477C150.961 24.0568 151.535 24.7443 152.262 25.2102C152.995 25.6705 153.833 25.9006 154.776 25.9006C155.299 25.9006 155.788 25.8324 156.242 25.696C156.702 25.554 157.114 25.3466 157.478 25.0739C157.847 24.8011 158.157 24.4659 158.407 24.0682C158.663 23.6705 158.839 23.2159 158.935 22.7045L162.123 22.7216C162.004 23.5511 161.745 24.3295 161.347 25.0568C160.955 25.7841 160.441 26.4261 159.805 26.983C159.168 27.5341 158.424 27.9659 157.572 28.2784C156.719 28.5852 155.773 28.7386 154.734 28.7386C153.2 28.7386 151.83 28.3835 150.626 27.6733C149.421 26.9631 148.472 25.9375 147.779 24.5966C147.086 23.2557 146.739 21.6477 146.739 19.7727C146.739 17.892 147.089 16.2841 147.788 14.9489C148.487 13.608 149.438 12.5824 150.643 11.8722C151.847 11.1619 153.211 10.8068 154.734 10.8068C155.705 10.8068 156.609 10.9432 157.444 11.2159C158.279 11.4886 159.023 11.8892 159.677 12.4176C160.33 12.9403 160.867 13.5824 161.288 14.3438C161.714 15.0994 161.992 15.9631 162.123 16.9347ZM164.882 28.5V15.4091H167.874V17.5909H168.01C168.249 16.8352 168.658 16.2528 169.237 15.8438C169.822 15.429 170.49 15.2216 171.24 15.2216C171.411 15.2216 171.601 15.2301 171.811 15.2472C172.027 15.2585 172.206 15.2784 172.348 15.3068V18.1449C172.217 18.0994 172.01 18.0597 171.726 18.0256C171.447 17.9858 171.178 17.9659 170.916 17.9659C170.354 17.9659 169.848 18.0881 169.399 18.3324C168.956 18.571 168.607 18.9034 168.351 19.3295C168.095 19.7557 167.967 20.2472 167.967 20.804V28.5H164.882ZM177.93 28.7642C177.101 28.7642 176.354 28.6165 175.689 28.321C175.03 28.0199 174.507 27.5767 174.121 26.9915C173.74 26.4062 173.55 25.6847 173.55 24.8267C173.55 24.0881 173.686 23.4773 173.959 22.9943C174.232 22.5114 174.604 22.125 175.075 21.8352C175.547 21.5455 176.078 21.3267 176.669 21.179C177.266 21.0256 177.882 20.9148 178.518 20.8466C179.286 20.767 179.908 20.696 180.385 20.6335C180.862 20.5653 181.209 20.4631 181.425 20.3267C181.646 20.1847 181.757 19.9659 181.757 19.6705V19.6193C181.757 18.9773 181.567 18.4801 181.186 18.1278C180.805 17.7756 180.257 17.5994 179.541 17.5994C178.786 17.5994 178.186 17.7642 177.743 18.0938C177.305 18.4233 177.01 18.8125 176.857 19.2614L173.976 18.8523C174.203 18.0568 174.578 17.392 175.101 16.858C175.624 16.3182 176.263 15.9148 177.018 15.6477C177.774 15.375 178.609 15.2386 179.524 15.2386C180.155 15.2386 180.783 15.3125 181.408 15.4602C182.033 15.608 182.604 15.8523 183.121 16.1932C183.638 16.5284 184.053 16.9858 184.365 17.5653C184.683 18.1449 184.842 18.8693 184.842 19.7386V28.5H181.876V26.7017H181.774C181.587 27.0653 181.322 27.4062 180.982 27.7244C180.646 28.0369 180.223 28.2898 179.712 28.483C179.206 28.6705 178.612 28.7642 177.93 28.7642ZM178.732 26.4972C179.351 26.4972 179.888 26.375 180.342 26.1307C180.797 25.8807 181.146 25.5511 181.391 25.142C181.641 24.733 181.766 24.2869 181.766 23.804V22.2614C181.669 22.3409 181.504 22.4148 181.271 22.483C181.044 22.5511 180.788 22.6108 180.504 22.6619C180.22 22.7131 179.939 22.7585 179.661 22.7983C179.382 22.8381 179.141 22.8722 178.936 22.9006C178.476 22.9631 178.064 23.0653 177.7 23.2074C177.337 23.3494 177.05 23.5483 176.839 23.804C176.629 24.054 176.524 24.3778 176.524 24.7756C176.524 25.3438 176.732 25.7727 177.146 26.0625C177.561 26.3523 178.089 26.4972 178.732 26.4972ZM194.575 15.4091V17.7955H186.837V15.4091H194.575ZM188.771 28.5V14.1733C188.771 13.2926 188.953 12.5597 189.317 11.9744C189.686 11.3892 190.18 10.9517 190.8 10.6619C191.419 10.3722 192.107 10.2273 192.862 10.2273C193.396 10.2273 193.871 10.2699 194.286 10.3551C194.7 10.4403 195.007 10.517 195.206 10.5852L194.592 12.9716C194.462 12.9318 194.297 12.892 194.098 12.8523C193.899 12.8068 193.678 12.7841 193.433 12.7841C192.859 12.7841 192.453 12.9233 192.214 13.2017C191.982 13.4744 191.865 13.8665 191.865 14.3778V28.5H188.771ZM203.528 15.4091V17.7955H196.003V15.4091H203.528ZM197.861 12.2727H200.946V24.5625C200.946 24.9773 201.009 25.2955 201.134 25.517C201.264 25.733 201.435 25.8807 201.645 25.9602C201.855 26.0398 202.088 26.0795 202.344 26.0795C202.537 26.0795 202.713 26.0653 202.872 26.0369C203.037 26.0085 203.162 25.983 203.247 25.9602L203.767 28.3722C203.602 28.429 203.366 28.4915 203.06 28.5597C202.759 28.6278 202.389 28.6676 201.952 28.679C201.179 28.7017 200.483 28.5852 199.864 28.3295C199.244 28.0682 198.753 27.6648 198.389 27.1193C198.031 26.5739 197.855 25.892 197.861 25.0739V12.2727ZM211.763 28.7557C210.451 28.7557 209.317 28.483 208.363 27.9375C207.414 27.3864 206.684 26.608 206.173 25.6023C205.661 24.5909 205.406 23.4006 205.406 22.0312C205.406 20.6847 205.661 19.5028 206.173 18.4858C206.69 17.4631 207.411 16.6676 208.337 16.0994C209.263 15.5256 210.352 15.2386 211.602 15.2386C212.408 15.2386 213.17 15.3693 213.886 15.6307C214.607 15.8864 215.244 16.2841 215.795 16.8239C216.352 17.3636 216.789 18.0511 217.107 18.8864C217.425 19.7159 217.585 20.7045 217.585 21.8523V22.7983H206.854V20.7188H214.627C214.621 20.1278 214.494 19.6023 214.244 19.142C213.994 18.6761 213.644 18.3097 213.195 18.0426C212.752 17.7756 212.235 17.642 211.644 17.642C211.013 17.642 210.46 17.7955 209.982 18.1023C209.505 18.4034 209.133 18.8011 208.866 19.2955C208.604 19.7841 208.471 20.321 208.465 20.9062V22.7216C208.465 23.483 208.604 24.1364 208.883 24.6818C209.161 25.2216 209.55 25.6364 210.05 25.9261C210.55 26.2102 211.136 26.3523 211.806 26.3523C212.255 26.3523 212.661 26.2898 213.025 26.1648C213.388 26.0341 213.704 25.8438 213.971 25.5938C214.238 25.3438 214.44 25.0341 214.576 24.6648L217.457 24.9886C217.275 25.75 216.928 26.4148 216.417 26.983C215.911 27.5455 215.263 27.983 214.474 28.2955C213.684 28.6023 212.781 28.7557 211.763 28.7557ZM220.195 28.5V15.4091H223.186V17.5909H223.322C223.561 16.8352 223.97 16.2528 224.55 15.8438C225.135 15.429 225.803 15.2216 226.553 15.2216C226.723 15.2216 226.913 15.2301 227.124 15.2472C227.339 15.2585 227.518 15.2784 227.661 15.3068V18.1449C227.53 18.0994 227.322 18.0597 227.038 18.0256C226.76 17.9858 226.49 17.9659 226.229 17.9659C225.666 17.9659 225.161 18.0881 224.712 18.3324C224.268 18.571 223.919 18.9034 223.663 19.3295C223.408 19.7557 223.28 20.2472 223.28 20.804V28.5H220.195ZM240.057 18.8693L237.244 19.1761C237.165 18.892 237.026 18.625 236.827 18.375C236.634 18.125 236.372 17.9233 236.043 17.7699C235.713 17.6165 235.31 17.5398 234.832 17.5398C234.19 17.5398 233.651 17.679 233.213 17.9574C232.781 18.2358 232.568 18.5966 232.574 19.0398C232.568 19.4205 232.707 19.7301 232.991 19.9688C233.281 20.2074 233.759 20.4034 234.423 20.5568L236.656 21.0341C237.895 21.3011 238.815 21.7244 239.418 22.304C240.026 22.8835 240.332 23.642 240.338 24.5795C240.332 25.4034 240.091 26.1307 239.614 26.7614C239.142 27.3864 238.486 27.875 237.645 28.2273C236.804 28.5795 235.838 28.7557 234.747 28.7557C233.145 28.7557 231.855 28.4205 230.878 27.75C229.901 27.0739 229.318 26.1335 229.131 24.929L232.139 24.6392C232.276 25.2301 232.565 25.6761 233.009 25.9773C233.452 26.2784 234.028 26.429 234.739 26.429C235.472 26.429 236.06 26.2784 236.503 25.9773C236.952 25.6761 237.176 25.304 237.176 24.8608C237.176 24.4858 237.031 24.1761 236.741 23.9318C236.457 23.6875 236.014 23.5 235.412 23.3693L233.179 22.9006C231.923 22.6392 230.994 22.1989 230.392 21.5795C229.79 20.9545 229.491 20.1648 229.497 19.2102C229.491 18.4034 229.71 17.7045 230.153 17.1136C230.602 16.517 231.224 16.0568 232.02 15.733C232.821 15.4034 233.744 15.2386 234.79 15.2386C236.324 15.2386 237.531 15.5653 238.412 16.2188C239.298 16.8722 239.847 17.7557 240.057 18.8693Z" fill="#902E01"/>
<defs>
<clipPath id="clip0_4001_147">
<rect width="40" height="40" fill="white"/>
</clipPath>
</defs>
</svg>
