<svg width="250" height="20" viewBox="0 0 250 20" fill="none" xmlns="http://www.w3.org/2000/svg">
<path d="M0.728 19V1.12H7.4C8.616 1.12 9.688 1.344 10.616 1.792C11.56 2.224 12.296 2.864 12.824 3.712C13.352 4.544 13.616 5.56 13.616 6.76C13.616 7.944 13.344 8.96 12.8 9.808C12.272 10.64 11.544 11.28 10.616 11.728C9.688 12.176 8.616 12.4 7.4 12.4H3.992V19H0.728ZM3.992 9.52H7.448C8.04 9.52 8.552 9.408 8.984 9.184C9.416 8.944 9.752 8.616 9.992 8.2C10.232 7.784 10.352 7.304 10.352 6.76C10.352 6.2 10.232 5.72 9.992 5.32C9.752 4.904 9.416 4.584 8.984 4.36C8.552 4.12 8.04 4 7.448 4H3.992V9.52ZM21.9418 19.288C20.6618 19.288 19.4938 18.992 18.4378 18.4C17.3978 17.808 16.5658 17 15.9418 15.976C15.3338 14.952 15.0298 13.784 15.0298 12.472C15.0298 11.16 15.3338 9.992 15.9418 8.968C16.5658 7.944 17.3978 7.136 18.4378 6.544C19.4778 5.952 20.6458 5.656 21.9418 5.656C23.2218 5.656 24.3818 5.952 25.4218 6.544C26.4618 7.136 27.2858 7.944 27.8938 8.968C28.5178 9.976 28.8298 11.144 28.8298 12.472C28.8298 13.784 28.5178 14.952 27.8938 15.976C27.2698 17 26.4378 17.808 25.3978 18.4C24.3578 18.992 23.2058 19.288 21.9418 19.288ZM21.9418 16.408C22.6458 16.408 23.2618 16.24 23.7898 15.904C24.3338 15.568 24.7578 15.104 25.0618 14.512C25.3818 13.904 25.5418 13.224 25.5418 12.472C25.5418 11.704 25.3818 11.032 25.0618 10.456C24.7578 9.864 24.3338 9.4 23.7898 9.064C23.2618 8.712 22.6458 8.536 21.9418 8.536C21.2218 8.536 20.5898 8.712 20.0458 9.064C19.5018 9.4 19.0698 9.864 18.7498 10.456C18.4458 11.032 18.2938 11.704 18.2938 12.472C18.2938 13.224 18.4458 13.904 18.7498 14.512C19.0698 15.104 19.5018 15.568 20.0458 15.904C20.5898 16.24 21.2218 16.408 21.9418 16.408ZM31.214 19V5.944H34.166V8.848L33.926 8.416C34.23 7.44 34.702 6.76 35.342 6.376C35.998 5.992 36.782 5.8 37.694 5.8H38.462V8.584H37.334C36.438 8.584 35.718 8.864 35.174 9.424C34.63 9.968 34.358 10.736 34.358 11.728V19H31.214ZM46.4941 19.144C45.0221 19.144 43.8781 18.744 43.0621 17.944C42.2621 17.128 41.8621 15.984 41.8621 14.512V8.752H39.6061V5.944H39.8461C40.4861 5.944 40.9821 5.776 41.3341 5.44C41.6861 5.104 41.8621 4.616 41.8621 3.976V2.968H45.0061V5.944H48.0061V8.752H45.0061V14.344C45.0061 14.776 45.0781 15.144 45.2221 15.448C45.3821 15.752 45.6221 15.984 45.9421 16.144C46.2781 16.304 46.7021 16.384 47.2141 16.384C47.3261 16.384 47.4541 16.376 47.5981 16.36C47.7581 16.344 47.9101 16.328 48.0541 16.312V19C47.8301 19.032 47.5741 19.064 47.2861 19.096C46.9981 19.128 46.7341 19.144 46.4941 19.144ZM54.3693 19.288C53.4573 19.288 52.6653 19.136 51.9933 18.832C51.3213 18.528 50.8013 18.096 50.4333 17.536C50.0653 16.96 49.8813 16.296 49.8813 15.544C49.8813 14.824 50.0413 14.184 50.3613 13.624C50.6813 13.048 51.1773 12.568 51.8493 12.184C52.5213 11.8 53.3693 11.528 54.3933 11.368L58.6653 10.672V13.072L54.9933 13.696C54.3693 13.808 53.9053 14.008 53.6013 14.296C53.2973 14.584 53.1453 14.96 53.1453 15.424C53.1453 15.872 53.3133 16.232 53.6493 16.504C54.0013 16.76 54.4333 16.888 54.9453 16.888C55.6013 16.888 56.1773 16.752 56.6733 16.48C57.1853 16.192 57.5773 15.8 57.8493 15.304C58.1373 14.808 58.2813 14.264 58.2813 13.672V10.312C58.2813 9.752 58.0573 9.288 57.6093 8.92C57.1773 8.536 56.6013 8.344 55.8813 8.344C55.2093 8.344 54.6093 8.528 54.0813 8.896C53.5693 9.248 53.1933 9.72 52.9533 10.312L50.3853 9.064C50.6413 8.376 51.0413 7.784 51.5853 7.288C52.1453 6.776 52.8013 6.376 53.5533 6.088C54.3053 5.8 55.1213 5.656 56.0013 5.656C57.0733 5.656 58.0173 5.856 58.8333 6.256C59.6493 6.64 60.2813 7.184 60.7293 7.888C61.1933 8.576 61.4253 9.384 61.4253 10.312V19H58.4493V16.768L59.1213 16.72C58.7853 17.28 58.3853 17.752 57.9213 18.136C57.4573 18.504 56.9293 18.792 56.3373 19C55.7453 19.192 55.0893 19.288 54.3693 19.288ZM71.4592 19.288C70.5152 19.288 69.6432 19.104 68.8432 18.736C68.0592 18.352 67.4352 17.808 66.9712 17.104L67.2832 16.48V19H64.3312V0.831999H67.4752V8.536L66.9952 7.888C67.4432 7.184 68.0512 6.64 68.8192 6.256C69.5872 5.856 70.4752 5.656 71.4832 5.656C72.7152 5.656 73.8272 5.96 74.8192 6.568C75.8112 7.176 76.5952 7.992 77.1712 9.016C77.7632 10.04 78.0592 11.192 78.0592 12.472C78.0592 13.736 77.7712 14.888 77.1952 15.928C76.6192 16.968 75.8352 17.792 74.8432 18.4C73.8512 18.992 72.7232 19.288 71.4592 19.288ZM71.0992 16.408C71.8192 16.408 72.4592 16.24 73.0192 15.904C73.5792 15.568 74.0112 15.104 74.3152 14.512C74.6352 13.92 74.7952 13.24 74.7952 12.472C74.7952 11.704 74.6352 11.032 74.3152 10.456C74.0112 9.864 73.5792 9.4 73.0192 9.064C72.4592 8.712 71.8192 8.536 71.0992 8.536C70.4112 8.536 69.7872 8.704 69.2272 9.04C68.6832 9.376 68.2512 9.848 67.9312 10.456C67.6272 11.048 67.4752 11.72 67.4752 12.472C67.4752 13.24 67.6272 13.92 67.9312 14.512C68.2512 15.104 68.6832 15.568 69.2272 15.904C69.7872 16.24 70.4112 16.408 71.0992 16.408ZM80.4562 19V0.831999H83.6002V19H80.4562ZM92.6951 19.288C91.3511 19.288 90.1751 18.984 89.1671 18.376C88.1591 17.768 87.3751 16.944 86.8151 15.904C86.2551 14.864 85.9751 13.712 85.9751 12.448C85.9751 11.136 86.2551 9.976 86.8151 8.968C87.3911 7.944 88.1671 7.136 89.1431 6.544C90.1351 5.952 91.2391 5.656 92.4551 5.656C93.4791 5.656 94.3751 5.824 95.1431 6.16C95.9271 6.496 96.5911 6.96 97.1351 7.552C97.6791 8.144 98.0951 8.824 98.3831 9.592C98.6711 10.344 98.8151 11.16 98.8151 12.04C98.8151 12.264 98.7991 12.496 98.7671 12.736C98.7511 12.976 98.7111 13.184 98.6471 13.36H88.5671V10.96H96.8711L95.3831 12.088C95.5271 11.352 95.4871 10.696 95.2631 10.12C95.0551 9.544 94.7031 9.088 94.2071 8.752C93.7271 8.416 93.1431 8.248 92.4551 8.248C91.7991 8.248 91.2151 8.416 90.7031 8.752C90.1911 9.072 89.7991 9.552 89.5271 10.192C89.2711 10.816 89.1751 11.576 89.2391 12.472C89.1751 13.272 89.2791 13.984 89.5511 14.608C89.8391 15.216 90.2551 15.688 90.7991 16.024C91.3591 16.36 91.9991 16.528 92.7191 16.528C93.4391 16.528 94.0471 16.376 94.5431 16.072C95.0551 15.768 95.4551 15.36 95.7431 14.848L98.2871 16.096C98.0311 16.72 97.6311 17.272 97.0871 17.752C96.5431 18.232 95.8951 18.608 95.1431 18.88C94.4071 19.152 93.5911 19.288 92.6951 19.288ZM112.616 19.288C111.24 19.288 110.016 19 108.944 18.424C107.888 17.848 107.056 17.056 106.448 16.048C105.84 15.04 105.536 13.896 105.536 12.616V1.12H108.8V12.448C108.8 13.184 108.96 13.848 109.28 14.44C109.616 15.032 110.072 15.496 110.648 15.832C111.224 16.152 111.88 16.312 112.616 16.312C113.368 16.312 114.024 16.152 114.584 15.832C115.16 15.496 115.608 15.032 115.928 14.44C116.264 13.848 116.432 13.184 116.432 12.448V1.12H119.696V12.616C119.696 13.896 119.392 15.04 118.784 16.048C118.176 17.056 117.336 17.848 116.264 18.424C115.208 19 113.992 19.288 112.616 19.288ZM122.691 19V5.944H125.643V8.512L125.403 8.056C125.707 7.272 126.203 6.68 126.891 6.28C127.595 5.864 128.411 5.656 129.339 5.656C130.299 5.656 131.147 5.864 131.883 6.28C132.635 6.696 133.219 7.28 133.635 8.032C134.051 8.768 134.259 9.624 134.259 10.6V19H131.115V11.344C131.115 10.768 131.003 10.272 130.779 9.856C130.555 9.44 130.243 9.12 129.843 8.896C129.459 8.656 129.003 8.536 128.475 8.536C127.963 8.536 127.507 8.656 127.107 8.896C126.707 9.12 126.395 9.44 126.171 9.856C125.947 10.272 125.835 10.768 125.835 11.344V19H122.691ZM136.917 19V5.944H140.061V19H136.917ZM136.917 4.48V1.12H140.061V4.48H136.917ZM148.916 19.144C147.444 19.144 146.3 18.744 145.484 17.944C144.684 17.128 144.284 15.984 144.284 14.512V8.752H142.028V5.944H142.268C142.908 5.944 143.404 5.776 143.756 5.44C144.108 5.104 144.284 4.616 144.284 3.976V2.968H147.428V5.944H150.428V8.752H147.428V14.344C147.428 14.776 147.5 15.144 147.644 15.448C147.804 15.752 148.044 15.984 148.364 16.144C148.7 16.304 149.124 16.384 149.636 16.384C149.748 16.384 149.876 16.376 150.02 16.36C150.18 16.344 150.332 16.328 150.476 16.312V19C150.252 19.032 149.996 19.064 149.708 19.096C149.42 19.128 149.156 19.144 148.916 19.144ZM157.408 19V1.12H164.944C166.128 1.12 167.136 1.328 167.968 1.744C168.816 2.144 169.464 2.72 169.912 3.472C170.376 4.208 170.608 5.104 170.608 6.16C170.608 6.976 170.384 7.744 169.936 8.464C169.504 9.168 168.808 9.752 167.848 10.216V8.704C168.728 9.04 169.424 9.456 169.936 9.952C170.448 10.448 170.808 11 171.016 11.608C171.224 12.216 171.328 12.856 171.328 13.528C171.328 15.24 170.76 16.584 169.624 17.56C168.504 18.52 166.944 19 164.944 19H157.408ZM160.672 16.12H165.28C166.128 16.12 166.8 15.888 167.296 15.424C167.808 14.944 168.064 14.312 168.064 13.528C168.064 12.744 167.808 12.112 167.296 11.632C166.8 11.152 166.128 10.912 165.28 10.912H160.672V16.12ZM160.672 8.056H165.112C165.784 8.056 166.32 7.864 166.72 7.48C167.12 7.08 167.32 6.568 167.32 5.944C167.32 5.32 167.12 4.824 166.72 4.456C166.32 4.088 165.784 3.904 165.112 3.904H160.672V8.056ZM178.393 19.288C177.385 19.288 176.505 19.064 175.753 18.616C175.017 18.168 174.449 17.544 174.049 16.744C173.665 15.944 173.473 15.008 173.473 13.936V5.944H176.617V13.672C176.617 14.216 176.721 14.696 176.929 15.112C177.153 15.512 177.465 15.832 177.865 16.072C178.281 16.296 178.745 16.408 179.257 16.408C179.769 16.408 180.225 16.296 180.625 16.072C181.025 15.832 181.337 15.504 181.561 15.088C181.785 14.672 181.897 14.176 181.897 13.6V5.944H185.041V19H182.065V16.432L182.329 16.888C182.025 17.688 181.521 18.288 180.817 18.688C180.129 19.088 179.321 19.288 178.393 19.288ZM187.964 19V5.944H191.108V19H187.964ZM187.964 4.48V1.12H191.108V4.48H187.964ZM194.011 19V0.831999H197.155V19H194.011ZM206.13 19.288C204.866 19.288 203.738 18.992 202.746 18.4C201.754 17.792 200.97 16.968 200.394 15.928C199.818 14.888 199.53 13.736 199.53 12.472C199.53 11.192 199.818 10.04 200.394 9.016C200.97 7.992 201.754 7.176 202.746 6.568C203.754 5.96 204.874 5.656 206.106 5.656C207.098 5.656 207.978 5.856 208.746 6.256C209.53 6.64 210.146 7.184 210.594 7.888L210.114 8.536V0.831999H213.258V19H210.282V16.48L210.618 17.104C210.17 17.808 209.546 18.352 208.746 18.736C207.946 19.104 207.074 19.288 206.13 19.288ZM206.466 16.408C207.186 16.408 207.818 16.24 208.362 15.904C208.906 15.568 209.33 15.104 209.634 14.512C209.954 13.92 210.114 13.24 210.114 12.472C210.114 11.72 209.954 11.048 209.634 10.456C209.33 9.848 208.906 9.376 208.362 9.04C207.818 8.704 207.186 8.536 206.466 8.536C205.762 8.536 205.13 8.712 204.57 9.064C204.01 9.4 203.57 9.864 203.25 10.456C202.946 11.032 202.794 11.704 202.794 12.472C202.794 13.24 202.946 13.92 203.25 14.512C203.57 15.104 204.01 15.568 204.57 15.904C205.13 16.24 205.762 16.408 206.466 16.408ZM222.375 19.288C221.031 19.288 219.855 18.984 218.847 18.376C217.839 17.768 217.055 16.944 216.495 15.904C215.935 14.864 215.655 13.712 215.655 12.448C215.655 11.136 215.935 9.976 216.495 8.968C217.071 7.944 217.847 7.136 218.823 6.544C219.815 5.952 220.919 5.656 222.135 5.656C223.159 5.656 224.055 5.824 224.823 6.16C225.607 6.496 226.271 6.96 226.815 7.552C227.359 8.144 227.775 8.824 228.063 9.592C228.351 10.344 228.495 11.16 228.495 12.04C228.495 12.264 228.479 12.496 228.447 12.736C228.431 12.976 228.391 13.184 228.327 13.36H218.247V10.96H226.551L225.063 12.088C225.207 11.352 225.167 10.696 224.943 10.12C224.735 9.544 224.383 9.088 223.887 8.752C223.407 8.416 222.823 8.248 222.135 8.248C221.479 8.248 220.895 8.416 220.383 8.752C219.871 9.072 219.479 9.552 219.207 10.192C218.951 10.816 218.855 11.576 218.919 12.472C218.855 13.272 218.959 13.984 219.231 14.608C219.519 15.216 219.935 15.688 220.479 16.024C221.039 16.36 221.679 16.528 222.399 16.528C223.119 16.528 223.727 16.376 224.223 16.072C224.735 15.768 225.135 15.36 225.423 14.848L227.967 16.096C227.711 16.72 227.311 17.272 226.767 17.752C226.223 18.232 225.575 18.608 224.823 18.88C224.087 19.152 223.271 19.288 222.375 19.288ZM230.878 19V5.944H233.83V8.848L233.59 8.416C233.894 7.44 234.366 6.76 235.006 6.376C235.662 5.992 236.446 5.8 237.358 5.8H238.126V8.584H236.998C236.102 8.584 235.382 8.864 234.838 9.424C234.294 9.968 234.022 10.736 234.022 11.728V19H230.878ZM244.823 19.288C243.431 19.288 242.215 18.96 241.175 18.304C240.151 17.632 239.447 16.728 239.063 15.592L241.415 14.464C241.751 15.2 242.215 15.776 242.807 16.192C243.415 16.608 244.087 16.816 244.823 16.816C245.399 16.816 245.855 16.688 246.191 16.432C246.527 16.176 246.695 15.84 246.695 15.424C246.695 15.168 246.623 14.96 246.479 14.8C246.351 14.624 246.167 14.48 245.927 14.368C245.703 14.24 245.455 14.136 245.183 14.056L243.047 13.456C241.943 13.136 241.103 12.648 240.527 11.992C239.967 11.336 239.687 10.56 239.687 9.664C239.687 8.864 239.887 8.168 240.287 7.576C240.703 6.968 241.271 6.496 241.991 6.16C242.727 5.824 243.567 5.656 244.511 5.656C245.743 5.656 246.831 5.952 247.775 6.544C248.719 7.136 249.391 7.968 249.791 9.04L247.391 10.168C247.167 9.576 246.791 9.104 246.263 8.752C245.735 8.4 245.143 8.224 244.487 8.224C243.959 8.224 243.543 8.344 243.239 8.584C242.935 8.824 242.783 9.136 242.783 9.52C242.783 9.76 242.847 9.968 242.975 10.144C243.103 10.32 243.279 10.464 243.503 10.576C243.743 10.688 244.015 10.792 244.319 10.888L246.407 11.512C247.479 11.832 248.303 12.312 248.879 12.952C249.471 13.592 249.767 14.376 249.767 15.304C249.767 16.088 249.559 16.784 249.143 17.392C248.727 17.984 248.151 18.448 247.415 18.784C246.679 19.12 245.815 19.288 244.823 19.288Z" fill="white"/>
</svg>
