<svg width="24" height="24" viewBox="0 0 24 24" fill="none" xmlns="http://www.w3.org/2000/svg">
<g clip-path="url(#clip0_2001_1556)">
<path d="M24 9.76196V19.127C23.9985 20.2347 23.6299 21.3108 22.9517 22.1867C22.2735 23.0627 21.3241 23.6891 20.252 23.968C20.1036 24.0066 19.9484 24.0106 19.7982 23.9797C19.648 23.9487 19.507 23.8837 19.386 23.7895C19.2649 23.6954 19.1672 23.5747 19.1003 23.4367C19.0333 23.2988 18.999 23.1473 19 22.994V13C19 12.2043 18.6839 11.4413 18.1213 10.8786C17.5587 10.316 16.7956 9.99996 16 9.99996H8C7.20435 9.99996 6.44129 10.316 5.87868 10.8786C5.31607 11.4413 5 12.2043 5 13V22.994C5.00096 23.1473 4.96666 23.2988 4.89973 23.4367C4.83281 23.5747 4.73506 23.6954 4.61405 23.7895C4.49303 23.8837 4.35199 23.9487 4.20182 23.9797C4.05165 24.0106 3.89638 24.0066 3.748 23.968C2.67589 23.6891 1.72648 23.0627 1.04831 22.1867C0.370142 21.3108 0.00147689 20.2347 2.36229e-07 19.127V9.76196C-0.000251185 8.94396 0.200194 8.1384 0.583759 7.4159C0.967324 6.6934 1.52229 6.07604 2.2 5.61796L9.2 0.893963C10.0262 0.336372 11.0002 0.0384521 11.997 0.0384521C12.9938 0.0384521 13.9678 0.336372 14.794 0.893963L21.794 5.61796C22.4728 6.07536 23.029 6.69242 23.4136 7.41496C23.7982 8.1375 23.9996 8.94342 24 9.76196ZM16 15H8C7.73478 15 7.48043 14.8946 7.29289 14.7071C7.10536 14.5195 7 14.2652 7 14V13C7 12.7347 7.10536 12.4804 7.29289 12.2929C7.48043 12.1053 7.73478 12 8 12H16C16.2652 12 16.5196 12.1053 16.7071 12.2929C16.8946 12.4804 17 12.7347 17 13V14C17 14.2652 16.8946 14.5195 16.7071 14.7071C16.5196 14.8946 16.2652 15 16 15Z" fill="#20484F"/>
</g>
<defs>
<clipPath id="clip0_2001_1556">
<rect width="24" height="24" fill="white"/>
</clipPath>
</defs>
</svg>
