<svg width="48" height="48" viewBox="0 0 48 48" fill="none" xmlns="http://www.w3.org/2000/svg">
<path d="M24.0001 0C17.9063 0 12.9232 3.87981 12.9232 11.0769C12.9232 15.8942 15.1659 20.8846 18.4616 23.6538V26.1923C18.4616 27.3029 17.7116 28.2548 16.7885 28.4423C9.59142 30.6562 3.69238 35.4231 3.69238 38.1923V41.5385C3.69238 45.0433 12.7357 48 24.0001 48C35.2645 48 44.3078 45.0433 44.3078 41.5385V38.1923C44.3078 35.6106 38.5962 30.6562 31.2116 28.4423C30.2885 28.2548 29.5385 27.1154 29.5385 26.1923V23.6538C32.8342 20.8846 35.077 15.8942 35.077 11.0769C35.077 3.87981 30.0938 0 24.0001 0Z" fill="#E94C04"/>
</svg>
