<svg width="24" height="24" viewBox="0 0 24 24" fill="none" xmlns="http://www.w3.org/2000/svg">
<g clip-path="url(#clip0_2001_1548)">
<path d="M2.54545 15.2727H1.09091C0.488364 15.2727 0 15.7612 0 16.3636C0 16.9661 0.488364 17.4545 1.09091 17.4545H1.52713L1.90807 22.9841C1.94749 23.5561 2.42298 24 2.99644 24H20.5891C21.1364 24 21.5989 23.5945 21.6706 23.0521L22.4106 17.4545H22.9091C23.5115 17.4545 24 16.9661 24 16.3636C24 15.7612 23.5115 15.2727 22.9091 15.2727H21.4545H18.5455V12.7017C18.8026 12.7612 19.0685 12.7924 19.3393 12.7924C21.2669 12.7924 22.8352 11.2242 22.8352 9.29658C22.8352 8.99549 22.7969 8.69855 22.7219 8.41178C23.5135 7.7584 24 6.7712 24 5.71156C24 3.85382 22.5435 2.32989 20.7124 2.22189C20.2044 0.914473 18.9372 0 17.4545 0C15.9719 0 14.7047 0.914473 14.1967 2.22189C13.348 2.27193 12.5801 2.62662 12 3.17738C11.4199 2.62662 10.652 2.272 9.80327 2.22189C9.29527 0.914473 8.02814 0 6.54545 0C5.06276 0 3.79564 0.914473 3.28764 2.22189C1.45651 2.32989 0 3.85382 0 5.71156C0 6.77127 0.486473 7.7584 1.27811 8.41185C1.20327 8.69855 1.16487 8.99542 1.16487 9.29658C1.16487 11.2242 2.73309 12.7924 4.66058 12.7924C4.93142 12.7924 5.19724 12.7612 5.45447 12.7017V15.2727H2.54545ZM17.4545 5.59622C18.0571 5.59622 18.5455 6.08465 18.5455 6.68713C18.5455 7.2896 18.0571 7.77804 17.4545 7.77804C16.8521 7.77804 16.3636 7.2896 16.3636 6.68713C16.3636 6.08465 16.8521 5.59622 17.4545 5.59622ZM11.9261 9.29658C11.9261 8.99549 11.8878 8.69855 11.8128 8.41178C11.8775 8.35833 11.9394 8.30189 11.9999 8.24415C12.0604 8.30189 12.1224 8.35833 12.1871 8.41178C12.1123 8.69847 12.0739 8.99535 12.0739 9.29651C12.0739 11.2241 13.6421 12.7924 15.5696 12.7924C15.8404 12.7924 16.1063 12.7611 16.3635 12.7016V15.2727H7.63636V12.7017C7.89353 12.7612 8.15942 12.7924 8.43025 12.7924C10.3578 12.7924 11.9261 11.2242 11.9261 9.29658ZM6.54545 5.59622C7.148 5.59622 7.63636 6.08465 7.63636 6.68713C7.63636 7.2896 7.148 7.77804 6.54545 7.77804C5.94305 7.77804 5.45455 7.2896 5.45455 6.68713C5.45455 6.08465 5.94305 5.59622 6.54545 5.59622Z" fill="#20484F"/>
</g>
<defs>
<clipPath id="clip0_2001_1548">
<rect width="24" height="24" fill="white"/>
</clipPath>
</defs>
</svg>
