<svg width="48" height="48" viewBox="0 0 48 48" fill="none" xmlns="http://www.w3.org/2000/svg">
<g clip-path="url(#clip0_4001_463)">
<path d="M32.827 0.346191L30.0578 1.50004L30.8078 4.96158C30.1155 5.46638 29.5457 6.101 29.0193 6.80773L25.5001 6.00004L24.3462 8.76927L27.3462 10.6731C27.2092 11.5385 27.2236 12.4111 27.3462 13.2693L24.3462 15.1731L25.4424 17.9423L28.9616 17.1923C29.4664 17.8774 30.101 18.4544 30.8078 18.9808L29.9424 22.5L32.7116 23.6539L34.6732 20.5962C35.5385 20.726 36.4256 20.726 37.2693 20.5962L39.1732 23.6539L41.9424 22.5577L41.1347 19.0385C41.8198 18.5337 42.4039 17.8919 42.9232 17.1923L46.5001 18L47.6539 15.2308L44.5962 13.327C44.726 12.4616 44.7188 11.6322 44.5962 10.7885L47.6539 8.82696L46.5001 6.05773L42.9808 6.86542C42.4832 6.17311 41.8919 5.54571 41.1924 5.01927L42.0001 1.55773L39.2308 0.403884L37.327 3.40388C36.4616 3.26686 35.5818 3.28129 34.7308 3.40388L32.827 0.346191ZM36.0001 7.84619C36.5409 7.84619 37.0818 7.96879 37.6155 8.19235C39.7429 9.08658 40.7525 11.488 39.8655 13.6154C38.9784 15.7428 36.5121 16.7524 34.3847 15.8654C32.2573 14.9784 31.2477 12.5193 32.1347 10.3847C32.8054 8.7909 34.3703 7.8534 36.0001 7.84619ZM13.6155 16.7308L12.8655 21.3462C11.7477 21.6202 10.7092 22.0457 9.75008 22.6154L5.94238 19.9039L3.17315 22.6731L5.827 26.4808C5.25008 27.4399 4.83902 28.5361 4.55777 29.6539L-0.0576172 30.4039V34.327L4.55777 35.1347C4.83181 36.2524 5.24286 37.2909 5.827 38.25L3.11546 42.0577L5.88469 44.827L9.75008 42.1731C10.7092 42.75 11.7549 43.1683 12.8655 43.4423L13.6155 48.0577H17.5385L18.3462 43.4423C19.4568 43.1611 20.5097 42.6923 21.4616 42.1154L25.327 44.827L28.0962 42.0577L25.327 38.25C25.8967 37.2981 26.3222 36.2452 26.5962 35.1347L31.2693 34.327V30.4039L26.5962 29.6539C26.3222 28.5505 25.8967 27.4904 25.327 26.5385L28.0385 22.6731L25.2693 19.9039L21.4616 22.6731C20.5025 22.0962 19.4568 21.6202 18.3462 21.3462L17.5385 16.7308H13.6155ZM15.6347 26.9423C18.6563 26.9423 21.0578 29.3438 21.0578 32.3654C21.0578 35.3871 18.6563 37.8462 15.6347 37.8462C12.6131 37.8462 10.1539 35.3871 10.1539 32.3654C10.1539 29.3438 12.6131 26.9423 15.6347 26.9423Z" fill="#E94C04"/>
</g>
<defs>
<clipPath id="clip0_4001_463">
<rect width="48" height="48" fill="white"/>
</clipPath>
</defs>
</svg>
