<svg width="25" height="19" viewBox="0 0 25 19" fill="none" xmlns="http://www.w3.org/2000/svg">
<path d="M15.7596 0.673073C15.4964 0.691102 15.2368 0.781247 14.9519 0.932689C13.6755 1.61057 9.04567 4.24639 9.03846 4.25C8.38221 4.63581 8.16226 5.49759 8.54808 6.15384C8.91226 6.77403 9.69832 7.0048 10.3365 6.70192C10.4014 6.66947 12.6478 5.51923 13.6827 4.97115C14.7861 4.38702 15.4712 5.05769 15.4712 5.05769C15.4712 5.05769 19.4555 9.03125 20.5769 10.1058C21.3053 10.8053 22.3041 10.4627 22.625 10.4231C22.9459 10.3834 24.5 10.0769 24.5 10.0769V2.80769C24.5 2.80769 22.1202 3.36298 20.7212 3.64423C20.2921 3.73077 19.7692 3.4423 19.7692 3.4423C19.7692 3.4423 18.6082 2.45072 17.3173 1.36538C16.6647 0.813699 16.1995 0.640622 15.7596 0.673073ZM9.52885 0.759612C8.05769 0.759612 5 2.77884 5 2.77884C5 2.77884 4.13462 3.33774 2.89423 2.83653L0.5 2V10.3077C0.5 10.3077 1.1851 10.5204 1.79808 10.7692C1.9387 10.3762 2.15144 10.0012 2.46154 9.70192C3.47837 8.73197 5.16947 8.72115 6.09615 9.67307C6.3738 9.96154 6.57212 10.3329 6.67308 10.7115C7.04808 10.8269 7.37981 11.0072 7.65385 11.2885C7.9351 11.5769 8.12981 11.9195 8.23077 12.2981C8.60577 12.4135 8.9375 12.6226 9.21154 12.9038C9.51803 13.2212 9.71995 13.6142 9.81731 14.0288C10.2067 14.1442 10.5709 14.3425 10.8558 14.6346C11.4111 15.2043 11.6094 15.9904 11.4904 16.7404C11.4904 16.7404 11.8257 17.1334 12.0385 17.3462C12.4495 17.7572 13.1274 17.7572 13.5385 17.3462C13.9495 16.9351 13.9495 16.2572 13.5385 15.8462C13.524 15.8317 12.0168 14.3101 12.1538 14.1731C12.2909 14.0361 14.1983 16.0156 14.2019 16.0192C14.6094 16.4267 15.2656 16.4267 15.6731 16.0192C16.0697 15.619 16.0805 14.988 15.7019 14.5769C15.6947 14.5697 13.9784 12.7236 14.0865 12.6154C14.2091 12.4928 16.2752 14.6346 16.2788 14.6346C16.6935 15.0168 17.3462 15.0096 17.75 14.6058C18.1538 14.2019 18.1358 13.5493 17.75 13.1346C17.7464 13.131 16.0553 11.3101 16.1635 11.2019C16.2716 11.0937 18.0349 12.8425 18.0385 12.8462C18.4495 13.2572 19.0986 13.2572 19.5096 12.8462C19.9207 12.4351 19.9207 11.7572 19.5096 11.3462C19.5024 11.3389 17.2091 9.07812 14.8942 6.75961C14.8942 6.75961 14.2236 6.03846 13.3077 6.4423C12.6659 6.72355 11.8257 7.13101 11.2019 7.42307C10.5168 7.78365 9.91106 7.88461 9.78846 7.88461C8.46154 7.88461 7.39423 6.8137 7.39423 5.49038C7.39423 4.63221 7.84135 3.86779 8.51923 3.4423C9.47476 2.77884 11.6923 1.625 11.6923 1.625C11.6923 1.625 11 0.759612 9.52885 0.759612ZM4.30769 10.0769C3.9399 10.0877 3.5649 10.2248 3.26923 10.5096C2.67788 11.0793 2.27764 12.1286 2.80769 12.7308C3.33414 13.3329 3.95793 12.9507 4.42308 12.8462C4.29327 13.3041 3.88942 13.7476 4.36538 14.3462C4.83774 14.9483 5.51563 14.5661 5.98077 14.4615C5.85096 14.9195 5.46514 15.4026 5.92308 15.9615C6.38101 16.5204 7.15625 16.2031 7.65385 16.0481C7.46274 16.5421 7.04087 17.0937 7.56731 17.6923C8.09375 18.2909 9.30889 18.0024 9.90385 17.4327C10.4952 16.8666 10.5421 15.9543 10.0192 15.4135C9.65865 15.0457 9.12861 14.9699 8.63462 15.125C8.82933 14.631 8.77524 14.0613 8.40385 13.6827C8.07212 13.3401 7.57091 13.2608 7.10577 13.3654C7.23558 12.9074 7.18149 12.4135 6.84615 12.0673C6.51442 11.7284 6.01322 11.6454 5.54808 11.75C5.67788 11.2921 5.62019 10.7981 5.28846 10.4519C5.02524 10.1815 4.67548 10.0661 4.30769 10.0769Z" fill="#20484F"/>
</svg>
