<svg width="48" height="48" viewBox="0 0 48 48" fill="none" xmlns="http://www.w3.org/2000/svg">
<g clip-path="url(#clip0_4001_470)">
<path d="M24 0C10.7091 0 0 10.7091 0 24C0 37.2909 10.7091 48 24 48C37.2909 48 48 37.2909 48 24C48 10.7091 37.2909 0 24 0ZM36.9231 24.7356C36.9231 25.4784 36.7356 26.0337 36.5553 26.7692L34.1538 33.7861C33.5986 35.6322 31.7524 36.9231 29.726 36.9231H18.4615C14.4014 36.9231 11.0769 33.5986 11.0769 29.5385V21.4183C11.0769 19.5721 12 17.9063 13.4784 16.8029L25.6587 7.57212C25.6587 7.57212 28.2476 8.12019 28.2476 10.5216C28.2476 11.4447 24.9231 16.6154 24.9231 16.6154H33.2308C35.2644 16.6154 36.9231 18.274 36.9231 20.3077V24.7356Z" fill="#E94C04"/>
</g>
<defs>
<clipPath id="clip0_4001_470">
<rect width="48" height="48" fill="white"/>
</clipPath>
</defs>
</svg>
