<svg width="24" height="24" viewBox="0 0 24 24" fill="none" xmlns="http://www.w3.org/2000/svg">
<path d="M22.7997 10.8H11.9997H8.39971C7.67971 10.8 7.19971 11.28 7.19971 12C7.19971 12.72 7.67971 13.2 8.39971 13.2H11.9997V22.8C11.9997 23.52 12.4797 24 13.1997 24H22.7997C23.5197 24 23.9997 23.52 23.9997 22.8V12C23.9997 11.28 23.5197 10.8 22.7997 10.8Z" fill="#20484F"/>
<path d="M10.7998 18C10.7998 18.6 10.1998 19.2 9.59982 19.2H7.19982V21.6H8.99982C9.35982 21.6 9.59982 21.84 9.59982 22.2V23.4C9.59982 23.76 9.35982 24 8.99982 24H2.99982C2.63982 24 2.39982 23.76 2.39982 23.4V22.2C2.39982 21.84 2.63982 21.6 2.99982 21.6H4.79982V19.2H2.39982C1.79982 19.2 1.31982 18.72 1.19982 18.12L-0.000177441 8.52002C-0.120177 7.92002 0.359823 7.32002 1.07982 7.20002C1.67982 7.08002 2.27982 7.56002 2.39982 8.28002L3.47982 16.8H9.59982C10.3198 16.8 10.7998 17.28 10.7998 18Z" fill="#20484F"/>
<path d="M11.9998 8.40003H20.3998C20.8798 8.40003 21.3598 8.16003 21.4798 7.68003L23.8798 1.68003C24.1198 1.08003 23.8798 0.360029 23.1598 0.120029C22.5598 -0.119971 21.8398 0.120029 21.5998 0.840029L19.5598 6.00003H11.9998C11.2798 6.00003 10.7998 6.48003 10.7998 7.20003C10.7998 7.92003 11.2798 8.40003 11.9998 8.40003Z" fill="#20484F"/>
</svg>
