<svg width="19" height="20" viewBox="0 0 19 20" fill="none" xmlns="http://www.w3.org/2000/svg">
<path d="M10.4496 0.962713C11.2609 2.31127 10.3414 3.99877 9.65633 5.46992C9.06498 6.73555 9.15512 8.17065 10.7381 7.98675C12.6455 7.7668 13.4171 7.61536 15.0397 7.50358C16.6804 7.3918 17.196 8.06247 17.196 8.68627C17.196 9.69228 16.8607 9.768 16.8607 10.1538C16.8607 10.5396 18.1191 10.2908 18.1191 11.5565C18.1191 12.8221 17.1347 12.7824 17.1347 13.1358C17.1347 13.4892 18.0938 13.6478 18.0938 14.661C18.0938 15.6743 16.803 15.8077 16.803 16.2259C16.803 16.6442 17.2212 16.7524 17.2212 17.3798C17.2212 18.0072 15.9123 19.3846 11.297 19.3846C3.43277 19.3846 4.36306 17.5024 0.692383 17.5024V10.5396C2.60344 10.5396 2.49887 8.84853 3.81859 7.55767C5.14911 6.25598 7.69479 3.30646 8.19599 0.980742C8.52772 -0.57695 9.952 0.12978 10.4496 0.962713Z" fill="#20484F"/>
</svg>
