<svg width="48" height="48" viewBox="0 0 48 48" fill="none" xmlns="http://www.w3.org/2000/svg">
<path d="M46.7524 18.714C46.5433 18.0505 45.9592 17.5601 45.2669 17.4592L31.7164 15.4904L25.6515 3.20917C25.0313 1.95436 22.9688 1.95436 22.3414 3.20917L16.2837 15.4904L2.7332 17.4592C2.0409 17.5601 1.45676 18.0433 1.24042 18.714C1.02407 19.3847 1.20436 20.1202 1.70917 20.6034L11.5169 30.1659L9.20195 43.6587C9.08657 44.351 9.36782 45.0577 9.93753 45.4688C10.5072 45.8798 11.2572 45.9375 11.8774 45.6058L24 39.238L36.1154 45.6058C36.3895 45.75 36.6851 45.8149 36.9808 45.8149C37.363 45.8149 37.738 45.6996 38.0625 45.4688C38.6322 45.0505 38.9135 44.351 38.7981 43.6587L36.4832 30.1659L46.2909 20.6034C46.7957 20.113 46.9688 19.3847 46.7524 18.714Z" fill="#E94C04"/>
</svg>
