<svg width="22" height="24" viewBox="0 0 22 24" fill="none" xmlns="http://www.w3.org/2000/svg">
<path d="M20.8149 4.64064C20.631 4.43151 20.3714 4.31252 20.0973 4.3017C17.9808 4.24761 15.2981 1.98319 13.5276 1.09257C12.4315 0.548096 11.7103 0.183913 11.1659 0.0901631C11.1082 0.0829515 11.0541 0.0793457 11 0.0793457C10.9459 0.0793457 10.8918 0.0829515 10.8341 0.0901631C10.2897 0.187519 9.56851 0.548096 8.47596 1.09617C6.70192 1.98319 4.02283 4.24761 1.90264 4.3017C1.6286 4.31252 1.36899 4.43151 1.18509 4.64064C0.997592 4.84978 0.903842 5.12742 0.914659 5.41228C1.37259 14.6647 4.6899 20.3906 10.5132 23.7152C10.6647 23.8017 10.8305 23.8486 11 23.8486C11.1659 23.8486 11.3353 23.8017 11.4868 23.7152C17.3101 20.3906 20.6274 14.6647 21.0817 5.41228C21.0961 5.12742 21.0024 4.84978 20.8149 4.64064ZM16.1851 8.27886L11.2704 15.5301C11.0937 15.7897 10.8197 15.9628 10.5457 15.9628C10.268 15.9628 9.96514 15.8149 9.77043 15.6202L6.30528 12.1551C6.07091 11.9207 6.07091 11.5349 6.30528 11.3005L7.16346 10.4423C7.39783 10.208 7.78365 10.208 8.01802 10.4423L10.2716 12.6959L14.1839 6.91949C14.3678 6.64545 14.7464 6.57334 15.024 6.76084L16.0228 7.43872C16.3005 7.62622 16.3726 8.00483 16.1851 8.27886Z" fill="#20484F"/>
</svg>
