<svg width="48" height="48" viewBox="0 0 48 48" fill="none" xmlns="http://www.w3.org/2000/svg">
<g clip-path="url(#clip0_4001_485)">
<path d="M48 0L35.0769 1.84615L39.2885 6.05769L31.3846 13.9615L29.0192 11.5962L27.6923 10.3269L26.3654 11.5962L16.6154 21.3462L14.25 18.9808L12.9231 17.7115L11.5962 18.9808L0.519231 30.0577L3.17308 32.7115L12.9231 22.9615L15.2885 25.3269L16.6154 26.5962L17.9423 25.3269L27.6923 15.5769L30.0577 17.9423L31.3846 19.2115L32.7115 17.9423L41.9423 8.71154L46.1538 12.9231L48 0ZM44.3077 16.6154V48H48V16.6154H44.3077ZM36.9231 20.3077V48H40.6154V20.3077H36.9231ZM29.5385 24V48H33.2308V24H29.5385ZM22.1538 27.6923V48H25.8462V27.6923H22.1538ZM14.7692 31.3846V48H18.4615V31.3846H14.7692ZM7.38462 35.0769V48H11.0769V35.0769H7.38462ZM0 38.7692V48H3.69231V38.7692H0Z" fill="#E94C04"/>
</g>
<defs>
<clipPath id="clip0_4001_485">
<rect width="48" height="48" fill="white"/>
</clipPath>
</defs>
</svg>
