<svg width="48" height="48" viewBox="0 0 48 48" fill="none" xmlns="http://www.w3.org/2000/svg">
<g clip-path="url(#clip0_4001_499)">
<path d="M2.42308 0L0 2.42308L4.26923 9.80769L7.03846 9.40385L23.9423 26.3077L22.5 27.6923C21.7644 28.4279 21.7644 29.5529 22.5 30.2885L23.25 31.0385C23.9856 31.774 25.1178 31.774 25.6731 31.0385L27.8654 33.2308C27.6779 34.3413 27.8654 35.6538 28.7885 36.5769L38.7692 46.5C40.8029 48.5337 44.1202 48.5337 46.1538 46.5C48.5553 44.2861 48.5337 40.976 46.5 38.9423L36.5769 28.9615C35.6538 28.0385 34.3413 27.6707 33.2308 28.0385L30.8077 25.8462C31.363 25.1106 31.363 23.9784 30.8077 23.4231L30.1154 22.7308C29.3798 21.9952 28.2548 21.9952 27.5192 22.7308L26.3077 23.9423L9.40385 7.03846L9.80769 4.26923L2.42308 0ZM38.4231 0.0576923C34.7812 -0.245193 29.9567 2.17067 27.6923 4.26923C24.9159 7.04567 25.363 10.6875 27.5769 14.1923L23.6538 18.1154L26.4231 21.2308C27.9014 19.9399 30.0793 19.9399 31.5577 21.2308L32.4808 22.1538L34.0962 20.5385C37.4351 22.5 40.9111 22.7812 43.5577 20.1346C46.1394 17.7332 48.9447 11.8125 47.6538 8.30769L42.4615 13.6731C41.726 14.4087 40.601 14.4087 39.8654 13.6731L34.5 8.30769C33.7644 7.57212 33.7644 6.44712 34.5 5.71154L39.8654 0.346154C39.4038 0.187501 38.9423 0.100962 38.4231 0.0576923ZM18.1154 23.0769L11.4231 29.7692C10.7308 29.6034 9.98077 29.5385 9.23077 29.5385C4.0601 29.5385 0 33.5986 0 38.7692C0 43.9399 4.0601 48 9.23077 48C14.4014 48 18.4615 43.9399 18.4615 38.7692C18.4615 37.8245 18.3101 36.9087 18.0577 36.0577L21.9808 32.1346L21.4038 31.3846C19.9255 29.9062 19.9399 27.6707 21.2308 26.1923L18.1154 23.0769ZM32.4231 31.5C32.6538 31.5 32.8702 31.5433 33.0577 31.7308L43.9615 42.6346C44.3293 43.0024 44.3293 43.5938 43.9615 43.9615C43.5938 44.3293 43.0024 44.3293 42.6346 43.9615L31.7308 33.0577C31.363 32.6899 31.363 32.0986 31.7308 31.7308C31.9183 31.5433 32.1923 31.5 32.4231 31.5ZM10.5 33.9808L14.0192 37.5L12.75 42.2885L7.96154 43.5577L4.44231 40.0385L5.71154 35.25L10.5 33.9808Z" fill="#E94C04"/>
</g>
<defs>
<clipPath id="clip0_4001_499">
<rect width="48" height="48" fill="white"/>
</clipPath>
</defs>
</svg>
