<svg width="24" height="24" viewBox="0 0 24 24" fill="none" xmlns="http://www.w3.org/2000/svg">
<g clip-path="url(#clip0_2001_1543)">
<path d="M23.9549 5.994L21.9549 0.494C21.8469 0.197 21.5659 0 21.2499 0H2.74991C2.43391 0 2.15291 0.197 2.04491 0.494L0.0449142 5.994C-0.0380858 6.224 -0.00508578 6.48 0.135914 6.681C0.275914 6.881 0.504914 7 0.749914 7H1.99991V23C1.99991 23.552 2.44791 24 2.99991 24H4.99991V12H18.9999V24H20.9999C21.5519 24 21.9999 23.552 21.9999 23V7H23.2499C23.4949 7 23.7239 6.881 23.8639 6.68C24.0049 6.48 24.0379 6.224 23.9549 5.994Z" fill="#20484F"/>
<path d="M6.5 21.5H17.5V24H6.5V21.5Z" fill="#20484F"/>
<path d="M6.5 17.5H17.5V20H6.5V17.5Z" fill="#20484F"/>
<path d="M6.5 13.5H17.5V16H6.5V13.5Z" fill="#20484F"/>
</g>
<defs>
<clipPath id="clip0_2001_1543">
<rect width="24" height="24" fill="white"/>
</clipPath>
</defs>
</svg>
